<?xml version="1.0" encoding="utf-8"?>
<!-- Generator: Adobe Illustrator 25.2.1, SVG Export Plug-In . SVG Version: 6.00 Build 0)  -->
<svg version="1.1" id="Calque_1" xmlns="http://www.w3.org/2000/svg" xmlns:xlink="http://www.w3.org/1999/xlink" x="0px" y="0px"
	 viewBox="0 0 500 500" style="enable-background:new 0 0 500 500;" xml:space="preserve">
<style type="text/css">
	.st0{fill:#F4A399;}
	.st1{fill:#F9B029;}
	.st2{fill:#1C2747;}
</style>
<circle class="st0" cx="200.1" cy="223.6" r="59.4"/>
<path class="st1" d="M254.2,313.1H73.2c0.8,49.3,41,89.1,90.5,89.1S253.4,362.5,254.2,313.1z"/>
<path class="st1" d="M280.9,36.7l0,302.7c71.7-1.3,129.5-68.6,129.5-151.4S352.6,38,280.9,36.7z"/>
<path class="st2" d="M276.2,448.2c-0.2,0-0.5,0-0.7-0.1c-24.7-4.2-47.2-13.4-67-27.2c-18.7-13.1-32.1-33.3-58.7-73.6
	c-10.4-15.8-21-33.7-14.6-47.3c0.3-0.6,0.6-1.2,1-2c1.5-2.9,3.7-6.9,4.2-12.6c0.6-6.1-0.9-11-1.3-12.6l0-0.1
	c-0.1-0.4-3-10.2-12.4-67.4c-8-49.1,35.7-96.1,44.5-105.1c24.8-25,53.6-39.7,85.6-43.5c37.8-4.5,68.3,7.9,83,15.8
	c1.3,0.7,2.1,2.1,2.1,3.5v138.9c0,2.2-1.8,4-4,4h-30.9l23.2,16.6l13-9.5c1.2-0.9,2.8-1,4.2-0.3c1.3,0.7,2.2,2.1,2.2,3.6v151.7
	c0,2.2-1.8,4-4,4h-50.6c-2.2,0-4-1.8-4-4V268c0-2.2,1.8-4,4-4s4,1.8,4,4v108.9h42.6V237.1l-9,6.6c-1.4,1-3.3,1-4.7,0l-35.7-25.5
	c-1.4-1-2-2.8-1.5-4.5c0.5-1.7,2.1-2.8,3.8-2.8H334V78.5c-14.6-7.4-42.2-17.9-76.2-13.8c-30.2,3.6-57.4,17.5-80.9,41.2
	c-8.4,8.4-49.7,52.9-42.3,98.2c9.2,56,12,66,12.1,66.4l0,0.1c0.6,2,2.5,8,1.7,15.8c-0.8,7.3-3.5,12.4-5.1,15.5
	c-0.3,0.6-0.6,1.1-0.8,1.6c-5,10.7,7.4,29.4,14,39.5c26.1,39.4,39.2,59.2,56.7,71.4c17.6,12.3,37.4,20.7,59.1,25v-64.2H269
	c-2.2,0-4-1.8-4-4V219.3l-65.9,5.6l-19.5,24.8l57.3-22.6c2.1-0.8,4.4,0.2,5.2,2.3c0.8,2.1-0.2,4.4-2.3,5.2l-71,28
	c-1.7,0.7-3.6,0.1-4.7-1.3c-1.1-1.4-1.1-3.4,0.1-4.9l29.6-37.8c0.7-0.9,1.7-1.4,2.8-1.5l72-6.1c1.1-0.1,2.2,0.3,3,1s1.3,1.8,1.3,2.9
	v152.3h3.1c2.2,0,4,1.8,4,4v73c0,1.2-0.5,2.3-1.4,3.1C278,447.9,277.1,448.2,276.2,448.2z"/>
</svg>
